<svg id="レイヤー_1" data-name="レイヤー 1" xmlns="http://www.w3.org/2000/svg" xmlns:xlink="http://www.w3.org/1999/xlink" viewBox="0 0 12.48 8"><defs><style>.cls-1{fill:none;}.cls-2{clip-path:url(#clip-path);}.cls-3{fill:#010002;}</style><clipPath id="clip-path"><rect class="cls-1" width="12.48" height="8"/></clipPath></defs><title>arrow_bag</title><g class="cls-2"><path class="cls-3" d="M9.14,7.91H6.21a.36.36,0,1,1,0-.71H9.14a2.57,2.57,0,0,0,0-5.15H1.21L2,2.8a.36.36,0,0,1,.1.25.35.35,0,0,1-.61.25L.1,2h0A.37.37,0,0,1,0,1.79v0H0a.36.36,0,0,1,0-.18.37.37,0,0,1,.08-.12L1.45.1a.35.35,0,1,1,.5.5l-.74.74H9.14a3.28,3.28,0,1,1,0,6.57Zm0,0"/></g></svg>