<svg id="レイヤー_1" data-name="レイヤー 1" xmlns="http://www.w3.org/2000/svg" viewBox="0 0 18 18"><title>名称未設定-1</title><path d="M17.94,12.72a5.35,5.35,0,0,1-1.45,3.77,5.35,5.35,0,0,1-3.77,1.45C11.47,18,10.24,18,9,18s-2.47,0-3.71-.06a5.35,5.35,0,0,1-3.77-1.45A5.35,5.35,0,0,1,.06,12.72C0,11.47,0,10.24,0,9S0,6.53.06,5.29A5.35,5.35,0,0,1,1.51,1.51,5.35,5.35,0,0,1,5.29.06C6.53,0,7.76,0,9,0s2.47,0,3.71.06a5.35,5.35,0,0,1,3.77,1.45,5.35,5.35,0,0,1,1.45,3.77C18,6.53,18,7.76,18,9S18,11.47,17.94,12.72ZM3.69,2a2.88,2.88,0,0,0-1,.68,2.88,2.88,0,0,0-.68,1c-.47,1.18-.36,4-.36,5.31s-.11,4.12.36,5.31a2.88,2.88,0,0,0,.68,1,2.88,2.88,0,0,0,1,.68c1.18.47,4,.36,5.31.36s4.12.11,5.31-.36A3.07,3.07,0,0,0,16,14.31c.47-1.18.36-4,.36-5.31s.11-4.13-.36-5.31a2.88,2.88,0,0,0-.68-1,2.88,2.88,0,0,0-1-.68c-1.18-.47-4-.36-5.31-.36S4.88,1.51,3.69,2ZM9,13.62A4.62,4.62,0,1,1,13.62,9,4.61,4.61,0,0,1,9,13.62ZM9,6a3,3,0,1,0,3,3A3,3,0,0,0,9,6Zm4.8-.73A1.08,1.08,0,1,1,14.88,4.2,1.08,1.08,0,0,1,13.81,5.27Z"/></svg>